classDiagram
namespace generate_mermaid_uml {
  class ClassInfo__85de7b {
    +__init__()
  }
  class ImportContext__086328 {
    +__init__()
    +visit_Import()
    +visit_ImportFrom()
  }
  class V__1652f2 {
    +visit_ClassDef()
    +visit_FunctionDef()
    +visit_Assign()
    +visit_AnnAssign()
    +visit_Call()
  }
}
namespace services__core_utiles__OracleDBConnection {
  class OracleDBConnection__1526e5 {
    +__init__()
    +_init_client()
    +connect()
    +close()
    +execute_query()
  }
}
namespace data_service__DBHandling__DataMergerAndExporter {
  class DataMergerAndExporter__867b24 {
    +__init__()
    +merge_and_save()
    +upload_to_oracle()
  }
}
namespace data_service__DBHandling__FilteredScoreUploader {
  class FilteredScoreUploader__1297e9 {
    +__init__()
    +run()
  }
}
namespace data_service__DBHandling__TableMergerUploader {
  class TableMergerUploader__d5705f {
    +__init__()
    +load_and_merge_tables()
    +upload_to_oracle()
    +save_csv()
    +process_all_years()
  }
}
namespace data_service__DataHandling__CSVHeaderRenamer {
  class CSVHeaderRenamer__651d51 {
    +__init__()
    +load_mapping()
    +rename_tokens()
    +column_index_to_excel_letter()
    +process_all_csvs()
  }
}
namespace data_service__DataHandling__CSVToOracleUploader {
  class CSVToOracleUploader__ccc25f {
    +__init__()
    +run()
  }
}
namespace data_service__DataHandling__CWURCrawler {
  class CWURCrawler__9ba8f9 {
    +__init__()
    +extract_years()
    +get_cwur_url()
    +find_column_index()
    +crawl_year()
    +run()
  }
}
namespace data_service__DataHandling__EnNameCollector {
  class EnNameCollector__25976f {
    +__init__()
    +run()
  }
}
namespace data_service__DataHandling__ExcelToCSVConverter_ver1 {
  class ExcelToCSVConverter_ver1__903cef {
    +__init__()
    +detect_data_start_row()
    +build_merged_map()
    +extract_dynamic_headers()
    +count_valid_cells_in_row()
    +run()
  }
}
namespace data_service__DataHandling__ExcelToCSVConverter_ver2 {
  class ExcelToCSVConverter_ver2__754ca6 {
    +__init__()
    +build_merged_map()
    +extract_column_names()
    +detect_data_start_row()
    +detect_data_end_row()
    +extract_year_slices()
    +extract_dataframe()
    +run()
  }
}
namespace data_service__DataHandling__HeaderAbbreviationMapper {
  class HeaderAbbreviationMapper__9f73b9 {
    +__init__()
    +load_headers()
    +generate_abbreviations()
    +save_mapping_csv()
    +check_duplicate_abbreviations_from_file()
    +run()
  }
}
namespace data_service__DataHandling__HeaderTermCollector {
  class HeaderTermCollector__e51d17 {
    +__init__()
    +collect()
    +tokenize()
    +run()
    +save_terms()
  }
}
namespace data_service__DataHandling__NameMapper {
  class NameMapper__f06468 {
    +__init__()
    +run()
  }
}
namespace data_service__DataHandling__RankedScoreExporter {
  class RankedScoreExporter__e7a681 {
    +__init__()
    +run()
  }
}
namespace ml_service__ModelCreator__Cleaner {
  class DataCleaner__967cba {
    +__init__()
    +clean_numeric()
    +handle_missing()
    +handle_outliers()
  }
}
namespace ml_service__ModelCreator__Controller_Num01 {
  class PipelineController__f88464 {
    +__init__()
    +load_config()
    +setup_db_connection()
    +run()
  }
}
namespace ml_service__ModelCreator__Controller_Num02 {
  class PipelineController__9d3579 {
    +__init__()
    +setup_db_connection()
    +run()
  }
}
namespace ml_service__ModelCreator__Fetcher {
  class DataFetcher__236ad1 {
    +__init__()
    +fetch()
  }
}
namespace ml_service__ModelCreator__Handler {
  class DataHandler__44377b {
    +__init__()
    +scale_features()
    +assign_clusters()
  }
}
namespace ml_service__ModelCreator__Logger {
  class PipelineLogger__633360 {
    +__init__()
    +save_log()
  }
}
namespace ml_service__ModelCreator__ModelLoader {
  class ModelFactory__5dfde1 {
    +get_model()
  }
}
namespace ml_service__ModelCreator__Trainer {
  class ModelTrainer__5c32ad {
    +__init__()
    +train_full_model()
    +train_by_cluster()
  }
}
namespace prediction_service__Predictor__Controller {
  class Controller__415001 {
    +__init__()
    +load_config()
    +run()
  }
}
namespace prediction_service__Predictor__PickleLoader {
  class PickleLoader__1ec100 {
    +__init__()
    +load()
  }
}
namespace prediction_service__Predictor__TableBuilder_Num01 {
  class TableBuilder__17e875 {
    +__init__()
    +_get_targets()
    +_load_data()
    +predict()
    +_export_final()
    +run()
  }
}
namespace prediction_service__Predictor__TableBuilder_Num02 {
  class TableBuilder__e255d6 {
    +__init__()
    +_load_data()
    +_predict_for_year()
    +_export_final()
    +run()
  }
}
namespace prediction_service__Predictor__TableBuilder_User {
  class TableBuilderUser__aa40e7 {
    +__init__()
    +_load_user_csv()
    +_extract_user_year_data()
    +_load_library_data_csv()
    +_load_library_data_db()
    +_load_library_data()
    +_predict_df()
    +run()
    +predict()
    +predict_from_payload()
  }
}
PipelineController__f88464 --> PipelineLogger__633360 : uses
PipelineController__f88464 --> DataFetcher__236ad1 : uses
PipelineController__f88464 --> ModelTrainer__5c32ad : uses
PipelineController__f88464 --> DataHandler__44377b : uses
PipelineController__f88464 --> DataCleaner__967cba : uses
PipelineController__9d3579 --> PipelineLogger__633360 : uses
PipelineController__9d3579 --> ModelTrainer__5c32ad : uses
PipelineController__9d3579 --> DataCleaner__967cba : uses
PipelineController__9d3579 --> DataFetcher__236ad1 : uses
Controller__415001 --> OracleDBConnection__1526e5 : uses
Controller__415001 *-- OracleDBConnection__1526e5 : has
TableBuilder__17e875 --> PickleLoader__1ec100 : uses
TableBuilder__e255d6 --> PickleLoader__1ec100 : uses
TableBuilderUser__aa40e7 --> PickleLoader__1ec100 : uses